<?xml version="1.0" encoding="utf-8"?>
<!-- Generator: Adobe Illustrator 27.6.1, SVG Export Plug-In . SVG Version: 6.00 Build 0)  -->
<svg version="1.1" id="Layer_1" xmlns="http://www.w3.org/2000/svg" xmlns:xlink="http://www.w3.org/1999/xlink" x="0px" y="0px"
	 viewBox="0 0 595.3 841.9" style="enable-background:new 0 0 595.3 841.9;" xml:space="preserve">
<style type="text/css">
	.st0{fill:#0E805C;}
	.st1{fill:#869198;}
	.st2{fill:#FFFFFF;}
</style>
<g>
	<path class="st0" d="M304.2,279.8c0.4,3.3,1.1,6.6,1.8,9.9c0.3,1.6,0.6,3.1,1,4.7c0.5,2.4,0.9,4.8,1.5,7.2c0.5,2.5,0.2,4.9-0.3,7.3
		c-0.9,4.4-1.9,8.7-2.9,13.1c-0.3,1.5-0.6,3-0.8,4.6c-0.1,0.4-0.2,0.8-0.6,0.8c-0.5,0.1-0.5-0.3-0.7-0.7c-0.8-2.4-1.1-4.8-1.6-7.2
		c-0.8-3.9-1.6-7.9-2.6-11.8c-0.5-2.2-0.7-4.3,0-6.5c1.1-3.5,1.5-7.1,2.2-10.7c0.6-3.3,1.3-6.6,2-10c0-0.2,0-0.5,0-0.7
		C303.6,279.8,303.9,279.8,304.2,279.8z"/>
	<path class="st0" d="M177.5,398.5c0.1,0,0.1,0,0.2,0c0,1.4,0,2.8,0.1,4.3c0,0.2,0,0.4-0.3,0.4C177.5,401.7,177.5,400.1,177.5,398.5
		z"/>
	<path class="st0" d="M333.4,444.4c-0.7,0-1.3,0-2,0c-0.1-0.1-0.2-0.2-0.3,0c-4.9,0-9.8,0-14.7,0c-0.1-0.1-0.2-0.1-0.3,0
		c-0.2,0-0.5,0-0.7,0c-0.1-0.1-0.2-0.1-0.3,0c-0.9,0-1.8,0-2.7,0c-0.1,0-0.2,0-0.3,0c-0.2,0-0.4,0-0.7,0c-0.1,0-0.2,0-0.3,0
		c-0.2,0-0.4,0-0.7,0c-0.1,0-0.2,0-0.3,0c-0.2,0-0.4,0-0.7,0c-0.1,0-0.2,0-0.3,0c-0.6,0-1.1,0-1.7,0c-0.1,0-0.2,0-0.3,0
		c-0.2,0-0.4,0-0.7,0c-0.1,0-0.2,0-0.3,0c-0.2,0-0.4,0-0.7,0c-0.1,0-0.2,0-0.3,0c-0.2,0-0.4,0-0.7,0c-0.1,0-0.2,0-0.3,0
		c-0.2,0-0.4,0-0.7,0c-0.1,0-0.2,0-0.3,0c-1.5,0-3.1,0-4.6,0c-0.1,0-0.2,0-0.3,0c-3.7,0.1-7.4,0.1-11.1-0.2c-1.7-0.1-3.4-0.5-5-1.4
		c-0.5-0.3-0.4-0.4-0.1-0.7c1.6-1.3,2.4-3.2,3.9-4.7c0.4-0.4,0.8-0.7,1.5-0.7c9,0,18,0,27,0.1c1.2,0,2.5,0.2,3.7,0.7
		c2.2,0.9,5.5-1.4,5.6-3.7c0.1-3.8-2.8-5.7-6.3-4.2c-0.2,0.1-0.5,0.2-0.7,0.3c-0.3,0-0.7-0.1-1,0.1c-8.9,0-17.9,0-26.8,0.1
		c-1.8,0-3.6,0.2-5.3,0.8c-0.7,0.2-1.3,0.6-1.8,1.2c-2.2,2.6-4.4,5.1-6.6,7.6c-0.5,0.6-1,0.7-1.8,0.4c-2.3-0.9-4.5-1.7-6.6-3
		c-3.5-2.4-6.1-5.5-7.1-9.6c-2.1-8,2.7-16.7,10.5-18.6c2.3-0.6,4.4-1.5,5.7-3.6c0.3-0.5,0.8-0.4,1.2-0.4c3.1,0,6.2-0.1,9.3,0
		c2,0.1,3.6-0.5,4.9-2c0.8-0.8,1.6-1.1,2.8-1.1c7.8,0,15.5,0,23.3,0c0.7,0,1,0.2,1.1,0.9c0.2,2,1.9,3.4,3.9,3.3
		c1.8-0.1,3.3-1.9,3.3-3.8c0-5-0.1-10,0.1-15c0.1-3.8-1.7-6.4-4.2-8.9c-1.8-1.9-4.1-2.3-6.5-2.3c-1.5,0-2.9,0-4.4,0
		c-0.3,0-0.7,0-0.9-0.3c-0.2-0.3,0.1-0.5,0.3-0.7c2-2.7,3.9-5.4,5.9-8.1c0.7-1,1.8-1.3,2.8-1.7c3-1.4,6.1-2.5,9-4.1
		c2.2-1.1,3.6-2.8,3.3-5.4c0-0.2,0-0.4,0-0.6c0-0.1,0-0.3,0-0.4c0-0.2,0-0.4,0-0.6c0-0.1,0-0.3,0-0.4c0.1-0.4,0.1-0.7,0-1.1
		c0-0.1,0-0.3,0-0.4c0-0.2,0-0.4,0-0.6c0-0.5,0-1,0-1.4c0.2-0.8,0.2-1.5,0-2.3c0-0.5,0-1,0-1.5c0-2.5-0.2-2.1,2.2-2.2
		c3.1-0.1,5.7,1,8.3,2.4c6.7,3.6,12.7,8.2,18.2,13.6c1.8,1.8,3.5,3.6,5.3,5.4c0.7,0.7,0.7,1.4,0.1,2.1c-1,1.1-2,2.1-3,3.2
		c-0.6,0.6-1.1,0.6-1.8,0.2c-3.2-2-6.1-4.5-9.1-6.6c-1.4-1-2.8-2-4.7-2c-1.5,0-2.5,0.7-3.5,1.6c-1.2,1.1-2.3,2.3-3.4,3.6
		c-0.9,1.1-1,1.1-1.7,0c-1-1.6-2.6-2-4.3-1.9c-1.5,0.1-2.5,1-3.1,2.3c-1.2,2.6,0.6,5.9,3.7,6.1c0.8,0.1,1.3,0.3,1.7,0.9
		c2.1,2.5,4.2,5,6.4,7.5c0.6,0.7,0.9,1.2-0.1,1.9c-1.4,0.9-2.3,2.2-2,4c0.4,2,1.7,3.3,3.8,3.7c0.7,0.1,0.6,0.6,0.6,1
		c0,2.9-0.1,5.8-0.1,8.7c-0.5,0.3-0.4,0.6-0.1,1c0.1,2.8,0.1,2.8-2.5,2.8c-2.1,0-4.2,0-6.4,0c-1,0-1.9,0.3-2.6,1c-2,1.9-3.7,4-5.5,6
		c-0.6,0.7-1.3,1-2.3,1c-6-0.1-12,0-18.1-0.1c-0.1,0-0.1,0-0.2,0c-4.2,0-8.3,0-12.5,0c-0.1-0.1-0.2-0.1-0.2,0
		c-3.9,0.2-7.6,1.5-11.4,2.4c-1,0.2-2,0-3,0.4c-2,0.8-3.1,2-3.3,3.9c-0.2,1.9,0.9,3.6,2.8,4.4c1.7,0.8,3.2,0,4-1.1
		c1.4-1.7,3.2-2,5.1-2.4c1.9-0.4,3.9-0.6,5.9-0.6c10.3,0,20.7,0,31,0c0.8,0,1.4,0.1,2,0.7c2,2.2,4,4.4,6.1,6.6
		c0.8,0.8,0.5,1.8,0.5,2.6c0.1,4.4,0.1,8.7,0.1,13.1c-0.2,0.2-0.1,0.5-0.1,0.7c0,0,0,0,0,0C333.6,444.2,333.5,444.3,333.4,444.4z"/>
	<path class="st0" d="M280.3,379.3c-3.9-0.7-7.1,0.5-9.8,3.3c-1.4,1.5-3.3,0.8-5,0.9c-0.2,0-0.4-0.2-0.6-0.4
		c-1.6-2.2-4.2-3.5-5.2-6.2c-0.6-1.6-3.3-2.2-4.9-1.4c-2,1-2.9,3.1-2.1,4.8c0.8,1.6,2.3,2.5,3.5,3.7c0.9,0.9,0.9,1.1,0,1.8
		c-2.3,1.8-4.6,3.5-6.8,5.4c-0.5,0.4-0.9,1.1-0.9,1.7c0.1,1.2-0.5,2-1.1,3c-0.9,1.7,0,4.2,2,5.2c2.6,1.4,5.4-0.2,5.8-3.1
		c0-0.2,0.1-0.4,0-0.5c-0.9-1.9,0.5-2.7,1.7-3.7c1.4-1.1,2.8-2.2,4.2-3.3c0.4-0.3,0.7-0.2,1.1-0.2c2,0,4,0.1,6,0.2
		c0.1,0,0.2,0,0.3,0c0.2,0,0.3,0,0.5,0c0.2,0,0.4,0,0.5,0c0.3,0,0.6,0,1,0c0.2,0,0.3,0,0.5,0c2-0.1,3.2-1.4,4.3-2.7
		c1-1.2,2.2-1.5,3.7-1.5c6.1,0.1,12.3,0,18.4,0c0.1,0,0.1,0,0.2,0c2.2,0.2,3.9-0.5,5.1-2.4c0.3-0.5,0.9-1.1,1.7-1.1
		c0.1,0.1,0.1,0.1,0.2,0c3.9,0.1,7.7-0.2,11.6,0.2c0.7,0.1,1.3,0.3,1.7,1c0.7,1.1,1.2,2.3,1.2,3.7c0,2-0.1,3.9,0,5.9
		c0.1,1.2-0.3,1.5-1.5,1.5c-7.6,0-15.2,0.1-22.8-0.1c-3.1-0.1-5.7,0.6-8,2.6c-1.8,0.1-3.5-0.2-5.3,0.1c-0.1,0-0.3,0-0.4,0
		c-0.1,0-0.2,0-0.3,0c-1.8,0-3.6,0.1-5.4,0.1c-0.2-0.2-0.3-0.1-0.5,0c-1.1,0-1.9,0.6-2.5,1.4c-2,2.3-4.5,3.6-7.4,4.5
		c-4.2,1.4-7.2,4.4-9.4,8.3c-0.1,0.3-0.3,0.5-0.5,0.7c-0.5,0.5-0.2,1.7-1.1,1.5c-1.4-0.2-3,0.1-4.1-1c-3.8-3.7-7.5-7.5-11.4-11.2
		c-1.2-1.2-1.6-2.6-1.7-4.2c-0.1-1.6-0.1-3.2-0.5-4.8c-0.5-1.8-0.4-3.7-0.5-5.6c-0.1-1.1,0.9-1.6,1.4-2.3c2-2.5,4.1-4.9,6.1-7.3
		c1.1-1.4,1.5-3,1.7-4.7c0.5-3.1,1.1-6.1,1.8-9.2c0.4-1.9,0.9-3.8,1.2-5.7c0.1-0.8,0.9-1.4,0.9-2.1c-0.1-0.9,0.3-1.5,0.7-2.2
		c2-4.1,5-7.2,8.9-9.6c2.8-1.8,5.8-2.9,8.8-4c3.3-1.1,6.6-2.3,9.9-3.3c2.4-0.7,4.8-1.4,7.2-1.8c4.2-0.8,8.3-0.6,12,1.8
		c0.9,0.6,1.3,1.2,1.3,2.2c0,1.1,0.1,2.3,0,3.4c-0.2,1.7,0.6,3,1.6,4.2c0.9,1.1,1.9,2.1,2.9,3.1c1.3,1.4,1.3,1.6,0.1,3.1
		c-0.2,0.2-0.4,0.4-0.6,0.6c-0.3,0-0.7,0-1,0.2c-0.2,0-0.5,0-0.7-0.1c-0.1,0-0.2,0-0.3,0c-0.2,0-0.5,0-0.7,0c-0.1,0-0.2,0-0.3,0
		c-0.2,0-0.3,0-0.5,0c-0.4-0.1-0.7-0.1-1,0.2c-2.6,0.8-5.1,1.9-7.6,2.9c-1.1,0.5-1.9,1.3-2.6,2.2c-1.5,2.1-2.9,4.2-4.4,6.3
		c-0.6,0.8-0.7,1.7-0.5,2.7c0.2,1.4,0.1,2.9,0.1,4.3c0,1.7,0,3.4,0,5.1c0,1.8,0,1.8-1.8,1.8C280.5,379.3,280.4,379.3,280.3,379.3z
		 M283,350.4c0.3,0,0.6,0,0.9,0c2.2-0.2,4.5-2.1,4.1-4.8c-0.2-1.4-1-2.5-2.3-3c-1.6-0.6-3.1-0.7-4.5,0.5c-0.7,0.6-1.3,1.1-2.2,1.4
		c-2.2,0.7-4.3,1.4-6.5,2c-1.5,0.4-2.9,1.2-3.7,2.4c-1.9,2.7-4.1,5.2-6.3,7.6c-1.1,1.2-1.6,2.3-1.6,3.9c0,1.8,0.2,3.7-0.2,5.6
		c-0.3,1.3,1.1,3.6,2.3,4.2c1.3,0.7,3.3,0.2,4.5-0.9c1.3-1.2,1.4-3.2,0.8-4.7c-0.8-2-1.3-3.8,0.4-5.3c0.7-0.6,1.2-1.4,1.8-2
		c1.9-2.2,3.5-4.7,6.8-5.1c0.5-0.1,1-0.3,1.5-0.5C280.2,351.2,281.5,350.2,283,350.4z"/>
	<path class="st0" d="M351.3,403.5c0-4.3,0.1-8.6-0.1-13c-0.1-2.1-0.4-4,0.6-6c0.9-1.8-0.4-4-2.3-4.7c-0.7-0.3-1.2-0.7-1.7-1.2
		c-1.4-1.6-2.7-3.1-4.1-4.7c-0.2-0.3-0.4-0.4-0.1-0.7c0.1-0.1,0.2-0.2,0.2-0.3c2.8-3.5,3.1-3.6,6.5-0.8c2.7,2.3,5.6,4.3,8.6,6.3
		c0.6,0.4,1.1,0.7,1.8,0.6c0.8-0.1,1.1,0.3,1.1,1.1c0,2.3,0.1,4.7,0,7c-0.1,1.5,0.5,2.5,1.4,3.5c2.1,2.1,4.1,4.2,6.2,6.3
		c2.1,2.2,2.1,2.3,0.1,4.5c-0.6,0.6-1.1,1.4-1.7,1.9c-1.5,1.2-1.3,2.7-1.1,4.2c0.1,1.1,0.1,2.1,0.2,3.2c-0.2,0.1-0.2,0.3,0,0.5
		c-0.6,3.1,0,4.6,2.1,5.7c1.9,1,4.9-0.5,5.5-2.6c0.5-1.8-0.4-3.2-0.9-4.7c-0.4-1.4-0.1-2.4,0.7-3.5c1.7-2.6,3.9-3.7,7-3.2
		c0.8,0.1,1.6,0,2.4,0c1,0,1.5,0.4,1.7,1.4c0.7,5.2,0.9,10.3,0.7,15.5c-0.1,2.4-0.5,4.7-0.7,7.1c-0.1,1-1.4,1.7-2.9,1.3
		c-1-0.2-1.9-0.2-2.8-0.2c-4.2,0-8.3,0-12.5,0c-1.1,0-2-0.2-2.8-1c-0.6-0.6-1.5-1-2.5-1.1c-0.1,0-0.2,0-0.2,0c-0.2,0-0.3,0-0.5,0
		c-0.1-0.1-0.2-0.1-0.3,0c-0.3,0-0.7,0-1,0c-0.2-0.2-0.5-0.2-0.7,0c-5.8,0-11.5,0-17.3,0c-0.2-0.1-0.3-0.2-0.5,0
		c-0.5-0.1-0.8-0.3-1.2-0.7c-2.2-2.5-4.5-5-6.7-7.4c-0.8-0.8-0.8-1.5,0.1-2.3c0.8-0.7,1.4-1.6,2.1-2.4c0.3-0.3,0.5-0.6,1-0.7
		c3.3,0.1,6.7,0.2,10,0c0.6,0,1.2,0,1.9,0c1.1-0.1,2.1,0.2,2.9,1.1c0.5,0.5,1,0.9,1.5,1.2c0.5,0.4,0.8,0.8,1,1.5
		c0.3,1.5,2.4,3.8,4.2,3.6c1.7-0.2,2.9-0.9,3.6-2.3c0.7-1.4,0.6-2.9-0.3-4.3c-0.5-0.8-1.2-1.4-2.1-1.7c-1.1-0.3-1.9-1.1-2.6-1.9
		c-1.3-1.5-2.7-2.8-4.7-3.4c-0.8-0.3-1.2-0.9-1-1.7C351.5,404.3,351.5,403.9,351.3,403.5z"/>
	<path class="st0" d="M360.3,451.7c-1.9,4.7-4.8,8.8-8.6,12.2c-1.8,1.6-4,2.8-6.3,3.8c-2.3,1-4.6,1.8-7.1,2.1
		c-3.5,0.5-6.9,0.4-10.3-0.6c-5.2-1.6-9.5-4.5-13-8.6c-2.1-2.5-3.6-5.4-5.2-8.2c-0.2-0.4-0.4-1.1,0.4-1.5c0.1,0.1,0.2,0.1,0.3-0.1
		c10.1,0,20.3,0,30.4,0c6.1,0,12.1,0,18.2,0c0.4,0,1-0.3,1.2,0.4C360.2,451.5,360.2,451.6,360.3,451.7z"/>
	<path class="st0" d="M324.4,353.9c0,1.2-0.7,1.7-1.7,2.1c-3,1.3-6,2.6-9,3.9c-0.6,0.2-1,0.6-1.3,1c-2.6,3.3-5.2,6.6-7.6,10.1
		c-1.8,2.6-3.7,5.1-5.9,7.4c-0.6,0.6-1.3,0.9-2.2,0.9c-2.2,0-4.5,0-6.7,0c-0.8,0-1-0.2-1-1c0-2.9-0.1-5.9-0.1-8.8
		c0-1.1,0.2-2,0.9-2.9c0.7-0.8,1.3-1.7,1.8-2.7c0.5-0.9,1.4-1.3,2.3-1.7c3.2-1.5,6.5-1.9,9.9-1.6c0.9,0.1,1.5-0.4,2-1
		c1.6-2,3.3-3.9,4.6-6c1.3-2.1,1.2-2.7-0.2-4.6c-1.4-2-3.1-3.7-4.8-5.5c-1-1.1-1.3-4.4-0.3-5.5c0.7-0.8,1.8-1,2.8-1
		c5.2-0.4,10,0.6,14.3,3.5c1.6,1,2.4,2.3,2.3,4.4c-0.2,2.9-0.1,5.9-0.1,8.8c0,0-0.1,0.1-0.1,0.1
		C324.3,353.8,324.4,353.8,324.4,353.9z"/>
	<path class="st0" d="M221.9,397.3c0-0.2,0-0.3,0-0.5c0-0.1,0-0.2,0-0.3c0-1.2,0-2.3,0-3.5c0.1-0.1,0.1-0.1,0-0.2
		c-0.2-2.3,0.4-4.6,0.9-6.8c0.6-2.5,1.5-5,2.4-7.4c0.9-2.4,2.1-4.6,3.4-6.8c1.5-2.5,3.1-4.8,4.9-7.1c2-2.5,4-4.9,6.4-7
		c0.4-0.3,0.9-0.7,1.4-0.4c0.7,0.3,0.1,0.8,0,1.2c-0.5,2.5-0.9,5.1-1.4,7.6c-0.5,2.4-1,4.8-1.5,7.1c-0.3,1.3-1.5,2-2.3,3.1
		c-2,2.5-4,5-6.1,7.5c-0.8,1-1,2-0.8,3.1c0.4,1.6,0.2,3.3,0.4,4.9c0.3,3.4,0.8,6.8,1,10.3c0.1,1.9,1,3,2.2,4.2
		c4,3.9,8.1,7.9,12.1,11.8c0.9,0.8,1.7,1.7,2.8,2.2c0.3,0.2,0.7,0.3,0.6,0.8c-0.1,0.5-0.5,0.5-0.9,0.5c-5.3,1.2-9.9-0.5-14.3-3.3
		c-4.4-2.8-7.2-6.9-9.3-11.5c-1.4-2.9-2-6-2-9.2C222,397.4,222,397.3,221.9,397.3z"/>
	<path class="st0" d="M335.2,477.5c0.2,0,0.3,0,0.5,0c0.2,0,0.5,0,0.7,0c5.6-0.6,10.9-2,15.6-5.1c1.7-1.1,3.1-2.4,4.7-3.7
		c1.6-1.4,3-2.8,4.4-4.3c1.6-1.9,3.2-3.8,4.3-6c1.1-2,2.2-4.1,3-6.3c0.3-0.9,0.8-1.3,1.8-1.2c1.9,0.1,3.8,0,5.7,0.1
		c1.5,0,1.8,0.5,1.2,1.9c-1.4,3.3-3.1,6.5-5,9.5c-3.3,5.1-7.3,9.6-12,13.4c-4.7,3.7-9.8,6.4-15.7,7.8c-2.9,0.7-5.8,1.3-8.7,1.3
		c-0.1,0-0.2,0-0.3,0c-4.6,0.2-9-0.4-13.4-1.7c-1.4-0.4-2.8-1.1-4.2-1.4c-0.9-0.2-1.4-0.8-1.3-1.8c0.1-1.9,0-3.8,0-5.7
		c0-1.3,0.3-1.4,1.5-0.9c0.7,0.3,1.3,0.6,2,1c3.3,1.8,6.8,2.4,10.4,3c1.5,0.2,3,0.1,4.5,0.2c0,0,0.1,0,0.1,0L335.2,477.5z"/>
	<path class="st1" d="M203,381.3c-1.4,0-2.7-0.6-4.1-0.8c-0.7-0.1-0.4-0.9-0.3-1.4c0.4-1.6,0.7-3.2,1.2-4.7
		c3-9.5,7.1-18.4,12.7-26.7c2.4-3.5,4.9-6.9,7.9-10.1c2-2.2,3.7-4.6,5.9-6.6c3.1-2.8,6.2-5.5,9.5-8.1c3.7-2.9,7.6-5.4,11.4-8.1
		c0.9-0.6,1.5-0.7,2.1,0.3c0.6,1,1.2,2.1,2,3c0.7,0.7,0.3,1.1-0.2,1.5c-1.2,0.9-2.5,1.7-3.7,2.5c-4.4,3-8.6,6.2-12.6,9.8
		c-2.3,2-4.6,4.1-6.7,6.4c-3.1,3.3-6,6.7-8.6,10.5c-2.3,3.4-4.6,6.8-6.6,10.4c-2.2,4.2-4.2,8.5-5.8,13c-1,2.8-2.1,5.5-2.5,8.4
		C204.5,381.5,203.7,381.3,203,381.3z"/>
	<path class="st0" d="M298.3,472.4c-0.6-1.2-0.3-2.5-0.4-3.7c-0.6-5-2.1-9.5-4.5-13.9c-0.5-0.9-1-1.8-1.6-2.7
		c-0.4-0.7-0.2-1,0.5-1.1c0.2,0.1,0.4,0.1,0.6,0c2.2,0.1,4.4-0.3,6.6,0.1c0.7,0.1,0.9,0.4,1.2,0.9c1,1.9,1.9,3.9,2.7,5.9
		c1.3,3.2,1.7,6.6,2.3,9.9c0.4,2.3,0.3,4.7,0.4,7c0.1,5.5-0.7,11-2.7,16.2c-0.7,1.8-1.1,3.7-2.1,5.3c-2.3,3.8-4.5,7.6-7.4,11
		c-2.2,2.5-4.6,4.7-7.2,6.8c-0.6,0.5-1,0.7-1.5-0.2c-0.9-1.3-2-2.5-3.1-3.7c-0.6-0.7-0.8-1.1,0.1-1.8c4.3-3.5,7.7-7.7,10.5-12.5
		c2.7-4.7,4.6-9.8,5.3-15.3c0.3-2.4,0.6-4.7,0.6-7.1c0,0,0.1,0,0.1-0.1c0-0.1-0.1-0.1-0.1-0.2c0-0.2,0-0.4,0-0.5
		C298.5,472.6,298.5,472.5,298.3,472.4z"/>
	<path class="st0" d="M218.4,493.9c-1.9,0.1-3.7,0.1-5.6,0.2c-0.8,0-1.1-0.4-1.1-1.1c0-2.9-0.2-5.7,0.1-8.6c0.2-2.8,0.4-5.5,0.9-8.3
		c0.1-0.5,0.4-0.8,0.8-0.9c4.1-0.8,8.1-2.1,12.2-3c1.5-0.4,3.1-0.8,4.6-1.2c1.3-0.3,1.7,0,1.7,1.3c0,2.4-0.3,4.8-0.2,7.2
		c0.1,3.4-0.2,6.7,0,10c0.1,1.3-0.4,1.9-1.7,2.2c-3,0.8-5.9,1.5-8.9,2.1c-0.8,0.1-1.6,0.1-2.4,0.1
		C218.6,493.8,218.5,493.8,218.4,493.9z"/>
	<path class="st0" d="M259.2,454.2c0.1,1.6-0.1,1.6-1.6,2c-3.6,0.9-7.2,1.8-10.8,2.7c-1.9,0.5-3.7,1.2-5.7,1.3c-0.8,0-1-0.2-1-0.9
		c0-2.8,0.4-5.6,0.4-8.4c0-3.7,0.1-7.4,0.1-11.1c0-0.8,0.3-1.2,1.1-1.6c3.3-1.4,6.5-2.9,9.7-4.4c0.8-0.4,1.3-0.3,1.8,0.4
		c2.9,3.8,4.6,8,5.5,12.7c0.3,1.5,0.5,3.1,0.5,4.6c0,0.1,0,0.2,0,0.3c0,0.7,0,1.4,0,2.2c0,0-0.1,0.1-0.1,0.1
		C259.2,454,259.2,454.1,259.2,454.2z"/>
	<path class="st0" d="M366.6,320.2c1.5,0.2,2.9-0.6,4.3-0.7c2.6-0.2,5.2-0.8,7.9-1c2.2-0.2,3.7,2.3,3.2,4.1
		c-0.6,2.1-1.3,4.2-2.1,6.3c-0.7,2-1.6,3.9-2.1,6c-0.4,1.3-1.1,2.5-1.3,3.8c0,0.2-0.1,0.6-0.4,0.5c-0.4-0.1-0.6-0.5-0.6-0.8
		c-0.6-1.9-1.3-3.7-2-5.5c-0.5-1.3-0.9-1.4-1.8-0.3c-3.6,4.5-7.2,9-10.8,13.4c-1.4,1.7-1.4,1.7-3.1,0.3c-1.5-1.2-2.9-2.6-4.3-3.9
		c-0.5-0.4-0.5-0.7,0-1.2c2.8-2.9,6.1-5.3,9.3-7.8c3.1-2.5,6.3-4.9,9.2-7.7c0.2-0.2,0.5-0.3,0.4-0.8c-1.6-0.4-3.1,0.3-4.7,0.5
		c-2,0.2-3.7,0.1-5.2-1.4c-0.9-0.9-2.2-1.5-3.1-2.5C361.7,320.5,364.2,320.6,366.6,320.2z"/>
	<path class="st0" d="M420.7,410.3c-0.1,0-0.3,0-0.4,0c-0.1,0-0.2,0-0.3,0c-0.5,0-1.1,0-1.6,0c-0.1,0-0.2,0-0.3,0
		c-0.2,0-0.4,0-0.7,0c-0.1,0-0.2,0-0.3,0c-0.2,0-0.4,0-0.7,0c-0.1,0-0.2,0-0.3,0c-0.2,0-0.4,0-0.7,0c-0.1,0-0.2,0-0.3,0
		c-0.2,0-0.4,0-0.7,0c-0.1,0-0.2,0-0.3,0c-0.2,0-0.4,0-0.7,0c-0.1,0-0.2,0-0.3,0c-0.2,0-0.4,0-0.7,0c-0.1,0-0.2,0-0.3,0
		c-0.2,0-0.4,0-0.7,0c-0.1-0.1-0.2-0.1-0.3,0c-1.2,0.1-2.5,0-3.7-0.1c-1.7-0.2-3.2-2.2-3.2-4.6c-0.1-3.6-0.1-7.1,0-10.7
		c0-2.1,2-3.8,4.7-3.8c3.9-0.1,7.7-0.1,11.6,0c3.1,0.1,5.2,2,6.9,4.6c1.9,3,1.7,6.2,0.6,9.1c-0.9,2.4-2.6,4.5-5.5,5.2
		c-0.5,0.1-0.7,0.8-1.3,0.4C421,410.3,420.9,410.2,420.7,410.3z M414.9,397.1c-1.2,0-2.3,0-3.5,0c-0.6,0-0.9,0.2-0.9,0.9
		c0,1.9,0,3.8,0,5.7c0,0.7,0.2,1.1,1.1,1.1c2.5-0.1,5-0.3,7.5-0.3c1.9,0,2.8-0.8,3.3-2.6c0.2-0.8,0.2-1.7,0-2.5
		c-0.3-1.4-1.3-2-2.8-2.2C418.1,397,416.5,397.1,414.9,397.1z"/>
	<path class="st1" d="M408.6,379.2c0.1,0.9-0.2,1.3-1.1,1.4c-1,0.1-2,0.4-3,0.7c-1.1,0.3-1.6-0.1-1.8-1.2c-1.6-6.8-4-13.3-7.1-19.6
		c-3.9-7.9-8.8-15-14.7-21.5c-1.1-1.2-1.4-2.2-0.6-3.6c0.4-0.8,0.7-1.7,0.9-2.5c0.4-1.3,0.6-1.4,1.6-0.5c7.1,7,12.8,14.9,17.4,23.7
		c3.6,7,6.5,14.2,8.3,21.9C408.5,378.4,408.5,378.8,408.6,379.2z"/>
	<path class="st0" d="M196.8,391.1c0.6,0.6,1.6,0.5,2.3,1.1c1.3,1.1,1.8,2.4,1.9,4c0,3.3,0.1,6.5,0,9.8c-0.1,2.4-1.5,4.2-4.1,4.3
		c-1.7,0-3.4,0-5.1,0c-0.1,0-0.2,0-0.3,0c-0.9,0-1.8,0-2.7,0c-0.1,0-0.2,0-0.3,0c-5.6,0.7-8.4-2.7-9.8-6.3c-0.2-0.5,0.1-1.2-0.4-1.6
		c0-1.3,0-2.6,0-3.8c0.4-2.8,2.9-6.4,6-7.1c1.3-0.3,2.6-0.4,3.8-0.4C191,391.1,193.9,391.1,196.8,391.1
		C196.8,391.1,196.8,391.1,196.8,391.1z M191.7,404.7c0.1,0.1,0.2,0,0.3-0.1c1-0.3,1.9-0.7,2.2-1.9c0.4-1.3,0.3-2.6,0.2-3.9
		c0-0.6-0.3-1.2-0.9-1.4c-2.5-0.8-5.1-0.8-7.6,0.1c-0.2,0.1-0.4,0.3-0.6,0.5c-2.3,2.4-0.9,6.4,1.8,6.7c0.1,0.1,0.2,0.1,0.2,0
		c0.3,0,0.7,0,1,0c0.9,0.2,1.8,0.2,2.7,0.1C191.4,404.7,191.6,404.7,191.7,404.7z"/>
	<path class="st0" d="M215.1,467.6c-0.4-0.1-0.7-0.2-0.5-0.8c1.1-3.9,2.8-7.5,4.9-10.9c3.1-5.1,7.3-9.2,12.1-12.7
		c0.3-0.2,0.7-0.5,1.1-0.6c0.7-0.1,1.2,0.1,0.9,0.9c-0.1,0.3-0.1,0.6-0.1,0.8c0.1,5.5-0.4,10.9-0.3,16.4c0.1,2.1,0,2.1-2,2.6
		c-5.2,1.3-10.4,2.6-15.6,3.9C215.4,467.4,215.3,467.5,215.1,467.6z"/>
	<path class="st0" d="M238.9,478.9c0-2.9,0-5.8,0-8.7c0-1.8,0.2-2.1,1.9-2.6c3.9-1,7.8-1.9,11.7-2.9c1.1-0.3,2.3-0.6,3.5-0.7
		c1.1-0.1,1.3,0,1,1c-0.8,3.5-2.3,6.7-4.2,9.8c-3,4.9-6.7,9.1-11.6,12.2c-0.3,0.2-0.5,0.4-0.8,0.5c-1.2,0.6-1.6,0.3-1.6-1
		C238.8,484,238.8,481.5,238.9,478.9C238.8,478.9,238.9,478.9,238.9,478.9z"/>
	<path class="st1" d="M210,449.2c0,0.5-0.2,0.9-0.7,1.1c-1.1,0.5-2.2,1.1-3.4,1.6c-0.8,0.4-1.2,0.2-1.6-0.6c-3-6.7-5-13.8-6.7-20.9
		c-0.5-2.4-0.7-4.9-1.4-7.3c-0.2-0.6-0.1-1.1,0.7-1.2c1.5-0.2,2.9-0.5,4.4-0.8c0.6-0.1,1,0,1.1,0.7c0.7,5.2,1.8,10.3,3.3,15.3
		c1.1,3.8,2.3,7.5,4,11.1C209.8,448.5,209.9,448.9,210,449.2z"/>
	<path class="st1" d="M366.6,320.2c-2.4,0.4-4.9,0.4-7.3,1.3c-0.6,0.1-1-0.4-1.4-0.6c-6.8-4.3-13.9-7.7-21.4-10.4
		c-0.4-0.1-0.7-0.3-1.1-0.4c-1.7-0.4-1.7-0.4-1.2-2c0.2-0.7,0.3-1.3,0.4-2c0.3-1.6,0.9-2.1,2.5-1.6c4.4,1.4,8.8,3,13,5.2
		c5.1,2.6,9.9,5.6,14.6,8.8C365.5,318.9,365.8,319.8,366.6,320.2z"/>
	<path class="st1" d="M411.3,423.2c-0.2,1.4-0.6,2.8-0.7,4.3c-0.1,1.8-0.6,3.5-1,5.2c-0.4,1.9-1,3.9-1.7,5.8
		c-1.3,4-2.7,7.9-4.2,11.8c-0.6,1.6-1.1,1.7-2.5,0.9c-1-0.6-1.9-1.2-3-1.5c-0.8-0.2-0.8-0.6-0.5-1.3c2.1-5,4-10.1,5.3-15.3
		c0.9-3.6,1.6-7.1,2.1-10.8c0.1-1,0.6-1.1,1.4-1c1.2,0.2,2.4,0.5,3.7,0.7C411.2,422.2,411.3,422.3,411.3,423.2z"/>
	<path class="st0" d="M378.3,395.8c-0.5,0.3-0.7-0.2-0.9-0.4c-2.7-2.8-5.4-5.6-8.1-8.4c-0.5-0.5-0.7-1-0.7-1.6c0-2.4,0-4.8,0-7.2
		c0-0.2,0.1-0.5,0-0.7c-0.8-2.3,0.7-3.6,2-5.1c0.5-0.5,0.7-0.3,1,0.1c3.8,4.9,7.1,10.2,9.3,16.1c0.6,1.6,1.2,3.1,1.8,4.6
		c0.4,1,0.2,1.7-0.9,1.9C380.5,395.2,379.5,395.9,378.3,395.8z"/>
	<path class="st0" d="M340.6,441.2c0-2.6-0.1-5.1-0.1-7.7c0.2-0.1,0.2-0.3,0.1-0.5c0.3-0.4,0.7-0.3,1-0.3c5.6,0,11.3,0,16.9,0.1
		c0.1,0.1,0.2,0.1,0.3,0c0.5,0.2,0.5,0.6,0.5,1c0,2.3,0,4.6,0,7c0,0.8-0.4,1.1-1.1,1.1c-5.6,0-11.2,0-16.8,0c-0.4,0-0.8,0-0.9-0.5
		C340.6,441.3,340.6,441.2,340.6,441.2z"/>
	<path class="st1" d="M269.6,316.5c-2.7,0.7-5.1,1.9-7.5,3c-3.4,1.5-2.6,1.8-4.4-1.5c-0.2-0.3-0.3-0.6-0.4-0.9
		c-0.9-1.7-0.9-1.8,0.9-2.5c2.9-1,5.4-2.8,8.2-3.8c1.8-0.7,3.7-1.1,5.6-1.9c0.6-0.2,1,0,1.3,0.5c0.4,0.8,0.8,1.6,1.2,2.3
		c0.6,0.9,0.4,1.6-0.5,2.2c-0.8,0.5-0.9,0.8,0.1,1.1c1.8,0.6,2.6,2,2.5,3.8c-0.1,1.6-1.1,2.6-2.9,3.1c-2,0.5-4.1-1.1-4.1-3.4
		C269.6,317.9,269.6,317.3,269.6,316.5z"/>
	<path class="st1" d="M388.1,466.2c0.1-0.5-0.2-0.8-0.5-1.2c-1.2-1.2-2.4-2.4-3.7-3.6c-0.6-0.5-0.9-1-0.3-1.8
		c0.4-0.6,0.8-1.2,1.2-1.9c0.4-0.8,1.1-0.9,1.7-0.4c0.6,0.5,1.2,0.5,1.8,0.5c-0.1,0.6,0.4,0.8,0.7,1c1.8,1.2,3.7,2.4,5.4,3.7
		c0.4,0.3,0.8,0.6,1.3,0.6c0.4,1.1,1.4,1.7,2.3,2.3c3.2,2.5,5.5,5.8,7.9,8.9c0.2,0.3,0.7,0.7,0.3,1.2c-0.4,0.4-0.9,0.1-1.3,0
		c-2.7-1-5.3-2.2-7.7-3.8c-0.7-0.5-1.5-0.9-2.2-1.3c-0.4-0.2-0.9-0.4-1.4-0.1c0-0.5,0-0.9-0.5-1.3c-1.1-0.7-2.1-1.6-3.2-2.4
		C389.3,466.4,388.8,465.9,388.1,466.2z"/>
	<path class="st1" d="M354.6,499.2c-0.1,0.7-0.5,1-0.8,1.2c-5,3.2-10.4,5.7-16.1,7.5c-0.6,0.2-1,0-1.2-0.5c-0.6-1.4-1.2-2.7-1.7-4.1
		c-0.3-0.8,0.4-0.9,0.9-1.1c3.6-1.3,7.1-2.7,10.5-4.4c1.3-0.7,2.5-1.5,3.8-2.2c1.7-0.9,1.6-0.8,2.9,0.6
		C353.7,497.1,353.8,498.4,354.6,499.2z"/>
	<path class="st1" d="M304.8,517c-1.5-0.2-3.6,0.2-5.6-0.2c-0.8-0.2-0.9-0.5-0.4-1c1.4-1.5,2.8-3,4.3-4.5c0.4-0.4,0.9-0.5,1.5-0.5
		c4.2,0.1,8.4-0.3,12.6-1c1-0.2,1.6-0.1,1.6,1.2c0,1.2,0.3,2.5,0.5,3.8c0.1,0.8-0.2,0.9-0.7,1c-1.3,0.2-2.6,0.5-3.9,0.6
		C311.6,516.9,308.5,517.2,304.8,517z"/>
	<path class="st0" d="M366.2,436.4c0-0.2,0-0.4,0-0.5c0.1-0.2,0.2-0.4,0.3-0.6c0.1,0,0.3-0.1,0.4-0.1c0.1,0.1,0.2,0.1,0.2,0
		c5.2,0,10.3,0.2,15.5,0c0.8,0,0.9,0.4,0.7,1c-0.5,1.5-1,3.1-1.4,4.6c-0.2,0.7-0.6,1-1.4,1c-4.3,0-8.6,0-13,0
		c-1.1,0-1.5-0.3-1.4-1.5c0.1-1,0.1-2.1,0.1-3.1C366.4,437.1,366.4,436.8,366.2,436.4z"/>
	<path class="st0" d="M263.6,486.5c-0.3-2.7,2.2-5.2,5.4-4.9c2.5,0.2,4.8,2.1,4.8,5.1c0,3-2.2,5.1-5.3,5.2
		C266.3,491.9,263.3,489.6,263.6,486.5z"/>
	<path class="st0" d="M278,456.9c2.9,0,5.3,2,5.3,4.4c0,3.5-1.9,5.5-4.9,5.7c-2.8,0.1-5.5-3-5.3-5.4
		C273.2,458.7,275,456.9,278,456.9z"/>
	<path class="st1" d="M321.2,304.7c-0.1,0-0.2,0-0.2,0c-2.7,0-2.8,0-3-2.6c-0.2-2.1-0.8-4-1.9-5.8c-0.5-0.9-0.3-1.3,0.4-1.8
		c0.9-0.7,1.7-1.5,2.6-2.2c0.6-0.5,1.2-0.8,1.8,0.2c2.1,3.4,3.1,7,3.3,11c0.1,1.1-0.3,1.5-1.4,1.4
		C322.3,304.7,321.8,304.8,321.2,304.7C321.2,304.8,321.2,304.8,321.2,304.7z"/>
	<path class="st1" d="M285.7,305c-2.4,0-2.4,0-2.2-2.5c0.3-3.5,1.3-6.8,3.1-9.8c0.5-0.9,1-1.2,1.9-0.4c0.9,0.8,1.9,1.5,2.9,2.3
		c0.6,0.5,0.5,1.2,0.2,1.6c-1.4,2.2-2.2,4.6-2.4,7.2c-0.1,1.2-0.8,1.6-1.9,1.6C286.8,305,286.2,305,285.7,305z"/>
	<path class="st1" d="M288.3,308.2c0.9-0.1,1.3,0.2,1.5,1.1c0.3,1.3,1,2.5,1.8,3.6c0.4,0.6,0.4,0.9-0.2,1.4c-1,0.9-2.1,1.7-3.1,2.6
		c-0.5,0.4-0.8,0.3-1.2-0.1c-0.7-0.9-1.4-1.7-1.8-2.8c-0.5-1.5-1.1-2.9-1.7-4.4c-0.2-0.5-0.2-0.8,0.4-0.9
		C285.5,308.6,286.9,308.4,288.3,308.2z"/>
	<path class="st1" d="M318.9,308.2c1.4,0.2,2.8,0.4,4.2,0.5c0.6,0.1,0.7,0.4,0.6,0.8c-0.4,2.6-1.5,4.9-3.1,7.1
		c-0.3,0.4-0.5,0.5-0.9,0.1c-1.1-1.1-2.4-1.9-3.8-2.7c-0.6-0.4-0.5-0.7-0.2-1.1c1-1.3,1.7-2.6,2-4.2
		C317.9,307.9,318.5,308.4,318.9,308.2z"/>
	<path class="st0" d="M395.9,463.2c-0.5,0-0.9-0.2-1.3-0.6c-1.7-1.4-3.6-2.5-5.4-3.7c-0.4-0.2-0.9-0.4-0.7-1
		c2.8-0.9,5.7-1.6,8.6-0.3c1.1,0.5,2.2,1,3,2.1c0.8,1,0.5,1.7-0.7,2.3C398.2,462.5,397,462.7,395.9,463.2z"/>
	<path class="st0" d="M258.8,508.5c0-2.1,1.3-3.4,3.3-3.4c2.2,0,3.8,1.4,3.9,3.6c0.1,1.8-1.8,3.7-3.7,3.7
		C260.4,512.3,258.8,510.5,258.8,508.5z"/>
	<path class="st1" d="M317.4,288.7c-1.2,1.2-2.3,2.3-3.5,3.4c-0.5,0.4-0.9,0.6-1.5,0.1c-0.9-0.7-1.9-1.3-3-1.8
		c-0.7-0.3-1.1-0.8-0.6-1.7c0.5-0.9,0.9-1.9,1.1-2.9c0.3-1.1,0.8-1.1,1.7-0.8c1.7,0.7,3.3,1.6,4.8,2.8
		C316.7,288.1,317,288.3,317.4,288.7z"/>
	<path class="st1" d="M299.7,289.3c0,0.6-0.3,0.8-0.7,0.9c-1.2,0.4-2.4,1-3.4,1.8c-0.5,0.3-0.8,0.3-1.2-0.1c-1.1-1-2.2-2-3.4-3
		c-0.5-0.4-0.4-0.8,0.1-1.1c1.8-1.2,3.7-2.1,5.6-3c0.3-0.2,0.9-0.3,1.1,0.2C298.5,286.5,299.1,288,299.7,289.3z"/>
	<path class="st1" d="M299.2,319.1c-0.7,1.5-1.2,3.2-2.2,4.7c-0.3,0.4-0.8,0.2-1.1,0c-1.6-0.9-3.2-1.7-4.7-2.6
		c-0.7-0.4-0.8-0.7-0.1-1.4c1.1-1,2.1-1.9,3.2-2.9c0.6-0.5,1.1-0.6,1.7-0.1c0.8,0.6,1.7,1.2,2.7,1.5
		C298.9,318.4,299.3,318.5,299.2,319.1z"/>
	<path class="st0" d="M388.1,466.2c0.8-0.2,1.3,0.3,1.8,0.6c1.1,0.8,2.1,1.6,3.2,2.4c0.5,0.4,0.5,0.8,0.5,1.3c0,0.6,0,1.2,0,1.9
		c0.2,2.5-1.2,2.7-3.4,2.1c-1.2-0.3-1.9-1.3-2.3-2.4C387.3,470.1,387.2,468.1,388.1,466.2z"/>
	<path class="st1" d="M311.6,323.9c-0.4,0.1-0.6-0.2-0.7-0.4c-0.6-1.4-1.3-2.7-1.8-4.1c-0.3-0.7,0.1-1.1,0.7-1.4
		c0.8-0.5,1.5-0.9,2.2-1.4c0.5-0.4,1-0.4,1.4,0c1.2,1.1,2.3,2.1,3.4,3.2c0.4,0.4,0.5,0.7,0,1.1c-1.6,1.1-3.1,2.2-4.9,2.8
		C311.8,323.8,311.7,323.8,311.6,323.9z"/>
	<path class="st0" d="M398.2,427.2c-1.5,0-3.1-1.6-3.2-3.2c0-1.2,1.4-3.2,2.3-3.2c2.4-0.1,4.1,1.2,4.2,3.2
		C401.6,425.7,400,427.2,398.2,427.2z"/>
	<path class="st0" d="M399.5,388.1c0,1.9-1.4,3.2-3.2,3.2c-1.6,0-3-1.5-3-3.1c0-2,1.1-3.1,3.1-3.1C398.5,385,399.5,386,399.5,388.1z
		"/>
	<path class="st0" d="M262.6,302.8c0,1.7-1.5,3.3-3.2,3.2c-1.6-0.1-3.1-1.9-3-3.7c0-1.6,1.4-2.8,3.1-2.8
		C261.3,299.5,262.6,300.8,262.6,302.8z"/>
	<path class="st0" d="M222.9,432.9c-1.5,0-3.2-1.8-3.2-3.3c0-1.5,1.5-2.9,3.2-2.9c2.1,0,3.2,1.1,3.2,3.1
		C226.2,431.5,224.8,432.9,222.9,432.9z"/>
	<path class="st0" d="M208.8,410c1.9,0,3.2,1.3,3.1,3.3c0,1.5-1.6,2.9-3.5,2.9c-1.4,0.1-3-1.7-2.9-3.3
		C205.5,411.3,207,410,208.8,410z"/>
	<path class="st0" d="M252.9,499.3c0,1.8-1.5,3.2-3.3,3.2c-1.4,0-3-1.7-3-3.1c0-1.9,1.1-3.1,3-3.2
		C251.8,496.2,252.8,497.2,252.9,499.3z"/>
	<path class="st0" d="M339.7,328.2c0,1.8-1.2,3-3,3c-1.7,0-3.3-1.5-3.3-3.3c0-1.5,1.5-3,3.1-3C338.5,325,339.8,326,339.7,328.2z"/>
	<path class="st0" d="M212.3,376.6c1.8,0,3.1,1.2,3.1,3.1c0,1.7-1.2,2.8-3,3c-2.1,0.2-3.3-1.6-3.3-3
		C209.2,377.7,210.3,376.6,212.3,376.6z"/>
	<path class="st0" d="M282.5,479.9c0-1.8,1.2-3,3.1-3c1.8,0,3.1,1.4,3.1,3.3c0,1.6-1.4,2.9-3,3C284,483.1,282.6,481.6,282.5,479.9z"
		/>
	<path class="st0" d="M377.7,355.1c1.8,0,2.9,1,2.9,2.6c0,2.2-1.1,3.4-3.1,3.4c-1.5,0-3.1-1.6-3.1-3.2
		C374.4,356.3,375.7,355.1,377.7,355.1z"/>
	<path class="st0" d="M319.2,493.4c0,1.5-1.5,3.1-3.2,3.1c-1.4,0.1-3.2-1.8-3.3-3.2c0-1.4,1.2-2.7,2.6-2.8
		C317.9,490.5,319.2,491.4,319.2,493.4z"/>
	<path class="st1" d="M394.3,369.9c0,1.6-1.4,3.1-3,3.2c-1.7,0.1-3.2-1.4-3.2-3.2c0-1.6,1-2.7,2.5-2.7
		C393,367.1,394.3,368.1,394.3,369.9z"/>
	<path class="st0" d="M362.4,309.5c0-1.7,1.6-3.5,3.1-3.4c1.2,0,3,2,3,3.5c0,1.8-1.1,2.8-3.2,2.9C363.8,312.5,362.4,311,362.4,309.5
		z"/>
	<path class="st0" d="M224.1,359.1c-1.7,0-3-1.2-2.9-3c0-2,1.1-3,3.3-3c1.3,0,2.7,1.6,2.7,3.1C227.2,358,226,359.1,224.1,359.1z"/>
	<path class="st0" d="M372.4,476.8c0-2,0.9-2.7,3.4-2.7c1.4,0,2.5,1.2,2.5,2.7c0,1.3-1.7,3-2.9,3
		C373.9,479.8,372.4,478.3,372.4,476.8z"/>
	<path class="st0" d="M256.9,327.7c0,1.8-1,2.8-2.9,2.8c-1.6,0-2.9-1.4-2.9-3c0-1.5,1.3-2.8,2.8-2.8
		C255.8,324.8,256.9,325.8,256.9,327.7z"/>
	<path class="st1" d="M245.4,336.2c-0.1,1.8-1.4,3.1-3,2.9c-1.3-0.1-2.8-2.1-2.7-3.4c0.1-1,1.5-2.7,2.2-2.4c0.8,0.4,1.8-0.9,2.4,0.5
		C244.6,334.6,245.6,335.1,245.4,336.2z"/>
	<path class="st1" d="M200.9,336.4c1.8,0,3,1.1,3,2.7c0,1.6-1.4,3-3,3.1c-1.3,0-2.8-1.7-2.8-3.3
		C198.2,337.3,199.2,336.4,200.9,336.4z"/>
	<path class="st0" d="M238.6,342.7c0,1.4-1.2,2.7-2.6,2.7c-1.4,0-2.9-1.3-2.9-2.5c0-1.5,1.2-2.7,2.7-2.7
		C237.5,340.2,238.6,341.2,238.6,342.7z"/>
	<path class="st0" d="M211.3,428.2c1.5,0,2.4,1.1,2.4,2.9c0,1.4-1.1,2.3-2.6,2.3c-1.2,0-2.4-0.9-2.4-3
		C208.7,429.1,209.8,428.2,211.3,428.2z"/>
	<path class="st1" d="M238.6,465.7c0,1.4-1,2.4-2.5,2.4c-1,0-2.2-1.3-2.2-2.4c0-1.2,1-2.3,2.2-2.3
		C237.7,463.3,238.6,464.2,238.6,465.7z"/>
	<path class="st1" d="M346.7,412.6c-3.3,0.2-6.7,0.1-10,0c2-0.4,3.9-0.1,5.9-0.1C343.9,412.5,345.3,412.4,346.7,412.6z"/>
	<path class="st1" d="M178.2,398.6c0,1.3,0,2.6,0,3.8c-0.2,0.1-0.3,0.3-0.5,0.4c0-1.4,0-2.8-0.1-4.3
		C177.9,398.6,178.1,398.6,178.2,398.6z"/>
	<path class="st1" d="M281.5,397.6c1.7-0.3,3.5,0,5.3-0.1C285,398,283.3,397.7,281.5,397.6z"/>
	<path class="st1" d="M331.1,347.9c0.1,0.8,0.1,1.5,0,2.3C330.9,349.4,330.9,348.6,331.1,347.9z"/>
	<path class="st1" d="M344.4,402.7c-0.3-0.4-0.4-0.7,0.1-1C344.7,402.1,344.8,402.4,344.4,402.7z"/>
	<path class="st1" d="M359.1,426.1c0.2-0.3,0.5-0.3,0.7,0C359.6,426.6,359.4,426.6,359.1,426.1z"/>
	<path class="st1" d="M351.3,403.5c0.2,0.4,0.2,0.8-0.1,1.2C351.1,404.3,351.1,403.9,351.3,403.5z"/>
	<path class="st1" d="M300.8,353.8c0.3-0.2,0.6-0.2,1-0.2C301.4,353.9,301.1,353.9,300.8,353.8z"/>
	<path class="st1" d="M366.2,436.4c0.2,0.3,0.2,0.6,0,0.9C366.1,437.1,366.1,436.8,366.2,436.4z"/>
	<path class="st1" d="M297.3,353.8c0.3-0.3,0.6-0.3,1-0.2C298,353.9,297.6,353.9,297.3,353.8z"/>
	<path class="st1" d="M331.1,352.6c0.1,0.4,0.1,0.7,0,1.1C330.9,353.3,330.9,352.9,331.1,352.6z"/>
	<path class="st1" d="M315.7,429.9c0.3-0.2,0.6-0.2,1-0.1C316.4,430,316.1,430,315.7,429.9z"/>
	<path class="st1" d="M336.4,477.5c-0.2,0-0.5,0-0.7,0C335.9,477.3,336.2,477.3,336.4,477.5z"/>
	<path class="st1" d="M333.7,444.2c0-0.3-0.1-0.5,0.1-0.7C334,443.7,334,443.9,333.7,444.2z"/>
	<path class="st1" d="M366.4,435.4c-0.1,0.2-0.2,0.4-0.3,0.6C366.1,435.6,366,435.4,366.4,435.4z"/>
	<path class="st1" d="M274.8,397.7c0.2-0.2,0.3-0.2,0.5,0C275.2,397.7,275,397.7,274.8,397.7z"/>
	<path class="st1" d="M298.3,472.4c0.2,0.1,0.2,0.3,0,0.4C298.3,472.7,298.3,472.5,298.3,472.4z"/>
	<path class="st1" d="M292.8,450.9c-0.2,0.2-0.4,0.2-0.6,0C292.4,450.9,292.6,450.9,292.8,450.9z"/>
	<path class="st1" d="M366.8,411.2c-0.2-0.2-0.1-0.3,0-0.5C366.8,410.9,366.8,411.1,366.8,411.2z"/>
	<path class="st1" d="M331.1,354.1c0,0.2,0,0.4,0,0.6C331,354.5,331,354.3,331.1,354.1z"/>
	<path class="st1" d="M331.1,351.6c0,0.2,0,0.4,0,0.6C330.9,352,330.9,351.8,331.1,351.6z"/>
	<path class="st1" d="M270.8,390.5c-0.2,0-0.3,0-0.5,0C270.5,390.3,270.7,390.3,270.8,390.5z"/>
	<path class="st1" d="M341.4,426.1c0.2-0.1,0.3-0.1,0.5,0C341.7,426.1,341.6,426.1,341.4,426.1z"/>
	<path class="st1" d="M340.7,432.9c0,0.2,0,0.4-0.1,0.5C340.4,433.2,340.5,433.1,340.7,432.9z"/>
	<path class="st1" d="M269.3,390.5c-0.2,0-0.4,0-0.5,0C269,390.3,269.2,390.3,269.3,390.5z"/>
	<path class="st1" d="M331.1,355.1c0,0.2,0,0.4,0,0.6C331,355.5,331,355.3,331.1,355.1z"/>
	<path class="st1" d="M304.5,382.9c-0.1,0.1-0.1,0.1-0.2,0C304.3,382.8,304.4,382.8,304.5,382.9z"/>
	<path class="st1" d="M416,410.3c0.1,0,0.2,0,0.3,0C416.2,410.5,416.1,410.5,416,410.3z"/>
	<path class="st1" d="M361.6,426.2c0.1,0,0.2,0,0.2,0c0,0-0.1,0-0.1,0L361.6,426.2z"/>
	<path class="st1" d="M360.9,426.1c0.1-0.1,0.2-0.1,0.3,0C361,426.1,361,426.1,360.9,426.1z"/>
	<path class="st1" d="M298.8,353.7c0.1,0,0.2,0,0.3,0C298.9,353.7,298.8,353.7,298.8,353.7z"/>
	<path class="st1" d="M367.1,435.2c-0.1,0.1-0.2,0.1-0.2,0C366.9,435.3,367,435.2,367.1,435.2z"/>
	<path class="st1" d="M299.7,353.7c0.1,0,0.2,0,0.3,0C299.9,353.8,299.8,353.8,299.7,353.7z"/>
	<path class="st1" d="M306.8,413.4c0.1,0,0.1,0,0.2,0c0,0-0.1,0-0.1,0L306.8,413.4z"/>
	<path class="st1" d="M340.6,441.2c0,0.1,0,0.2,0,0.2C340.6,441.3,340.6,441.3,340.6,441.2C340.5,441.2,340.6,441.2,340.6,441.2z"/>
	<path class="st1" d="M294,413.4c0.1-0.1,0.1-0.1,0.2,0c0,0-0.1,0-0.1,0L294,413.4z"/>
	<path class="st1" d="M420.7,410.3c0.1-0.1,0.2,0,0.3,0.1C420.9,410.4,420.8,410.3,420.7,410.3z"/>
	<path class="st1" d="M298.2,444.3c0.1,0,0.2,0,0.3,0C298.4,444.4,298.3,444.4,298.2,444.3z"/>
	<path class="st1" d="M303.2,444.3c0.1,0,0.2,0,0.3,0C303.4,444.4,303.3,444.4,303.2,444.3z"/>
	<path class="st1" d="M304.2,444.3c0.1,0,0.2,0,0.3,0C304.4,444.4,304.3,444.4,304.2,444.3z"/>
	<path class="st1" d="M305.2,444.3c0.1,0,0.2,0,0.3,0C305.4,444.4,305.3,444.4,305.2,444.3z"/>
	<path class="st1" d="M306.2,444.3c0.1,0,0.2,0,0.3,0C306.4,444.4,306.3,444.4,306.2,444.3z"/>
	<path class="st1" d="M307.2,444.3c0.1,0,0.2,0,0.3,0C307.4,444.4,307.3,444.4,307.2,444.3z"/>
	<path class="st1" d="M309.2,444.3c0.1,0,0.2,0,0.3,0C309.4,444.4,309.3,444.4,309.2,444.3z"/>
	<path class="st1" d="M310.2,444.3c0.1,0,0.2,0,0.3,0C310.4,444.4,310.3,444.4,310.2,444.3z"/>
	<path class="st1" d="M311.2,444.3c0.1,0,0.2,0,0.3,0C311.4,444.4,311.3,444.4,311.2,444.3z"/>
	<path class="st1" d="M312.2,444.3c0.1,0,0.2,0,0.3,0C312.4,444.4,312.3,444.4,312.2,444.3z"/>
	<path class="st1" d="M315.2,444.3c0.1-0.1,0.2-0.1,0.3,0C315.4,444.3,315.3,444.3,315.2,444.3z"/>
	<path class="st1" d="M316.2,444.3c0.1-0.1,0.2-0.1,0.3,0C316.4,444.3,316.3,444.3,316.2,444.3z"/>
	<path class="st1" d="M331.2,444.3c0.1-0.1,0.2-0.1,0.3,0C331.4,444.3,331.3,444.3,331.2,444.3z"/>
	<path class="st1" d="M333.4,444.4c0.1-0.1,0.2-0.1,0.3-0.2C333.7,444.4,333.6,444.4,333.4,444.4z"/>
	<path class="st1" d="M419.9,410.4c0.1,0,0.2,0,0.3,0C420.2,410.5,420.1,410.5,419.9,410.4z"/>
	<path class="st1" d="M418,410.3c0.1,0,0.2,0,0.3,0C418.2,410.5,418.1,410.5,418,410.3z"/>
	<path class="st1" d="M310.5,451c-0.1,0.1-0.2,0.1-0.3,0.1C310.3,450.9,310.4,450.9,310.5,451z"/>
	<path class="st1" d="M324.4,353.9c0-0.1-0.1-0.1-0.1-0.2c0,0,0,0,0.1-0.1C324.4,353.7,324.4,353.8,324.4,353.9z"/>
	<path class="st1" d="M414,410.3c0.1,0,0.2,0,0.3,0C414.2,410.5,414.1,410.5,414,410.3z"/>
	<path class="st1" d="M259.2,451.7c0-0.1,0-0.2,0-0.3C259.3,451.5,259.3,451.6,259.2,451.7z"/>
	<path class="st1" d="M360.3,451.7c-0.1-0.1,0-0.2,0.1-0.3C360.3,451.5,360.3,451.6,360.3,451.7z"/>
	<path class="st1" d="M259.2,454.2c0-0.1-0.1-0.1-0.1-0.2c0,0,0-0.1,0.1-0.1C259.2,453.9,259.3,454,259.2,454.2
		C259.3,454.1,259.2,454.1,259.2,454.2z"/>
	<path class="st1" d="M413,410.3c0.1,0,0.2,0,0.3,0C413.2,410.5,413.1,410.5,413,410.3z"/>
	<path class="st1" d="M412,410.3c0.1,0,0.2,0,0.3,0C412.2,410.5,412.1,410.5,412,410.3z"/>
	<path class="st1" d="M411,410.4c0.1-0.1,0.2-0.1,0.3,0C411.2,410.5,411.1,410.5,411,410.4z"/>
	<path class="st1" d="M191.5,410.3c0.1,0,0.2,0,0.3,0C191.7,410.4,191.6,410.4,191.5,410.3z"/>
	<path class="st1" d="M188.5,410.3c0.1,0,0.2,0,0.3,0C188.7,410.4,188.6,410.5,188.5,410.3z"/>
	<path class="st1" d="M280.8,397.6c0.1,0,0.2,0,0.3,0C281,397.7,280.9,397.7,280.8,397.6z"/>
	<path class="st1" d="M298.3,473.4c0,0.1,0.1,0.1,0.1,0.2c0,0,0,0-0.1,0.1C298.3,473.5,298.3,473.4,298.3,473.4z"/>
	<path class="st1" d="M221.9,397.3c0.1,0.1,0.1,0.1,0,0.2C221.9,397.4,221.9,397.4,221.9,397.3C221.8,397.3,221.9,397.3,221.9,397.3
		z"/>
	<path class="st1" d="M221.9,396.5c0,0.1,0,0.2,0,0.3C221.9,396.7,221.8,396.7,221.9,396.5C221.8,396.6,221.8,396.5,221.9,396.5z"/>
	<path class="st1" d="M335.2,477.5l-0.1,0c0,0-0.1,0-0.1,0C335,477.5,335.1,477.5,335.2,477.5z"/>
	<path class="st1" d="M221.9,392.8c0,0.1,0,0.2,0,0.2C221.9,393,221.9,392.9,221.9,392.8C221.9,392.8,221.9,392.8,221.9,392.8z"/>
	<path class="st1" d="M196.8,391.1C196.8,391.1,196.8,391.1,196.8,391.1c0-0.1,0-0.1,0-0.2C196.9,390.9,196.9,391,196.8,391.1
		C196.9,391,196.8,391.1,196.8,391.1z"/>
	<path class="st1" d="M335.4,484.9c0.1,0,0.2,0,0.3,0C335.6,484.8,335.5,484.8,335.4,484.9z"/>
	<path class="st1" d="M268.3,390.5c-0.1,0-0.2,0-0.3,0C268.2,390.4,268.2,390.4,268.3,390.5z"/>
	<path class="st1" d="M297.5,386.3c-0.1,0-0.1,0-0.2,0C297.3,386.3,297.4,386.3,297.5,386.3z"/>
	<path class="st1" d="M218.4,493.9c0.1,0,0.2,0,0.3,0C218.6,493.9,218.5,494,218.4,493.9z"/>
	<path class="st1" d="M280.3,379.3c0.1,0,0.2,0,0.2,0C280.5,379.3,280.4,379.3,280.3,379.3z"/>
	<path class="st1" d="M417,410.3c0.1,0,0.2,0,0.3,0C417.2,410.5,417.1,410.5,417,410.3z"/>
	<path class="st1" d="M415,410.3c0.1,0,0.2,0,0.3,0C415.2,410.5,415.1,410.5,415,410.3z"/>
	<path class="st1" d="M358.9,432.8c-0.1,0.1-0.2,0.1-0.3,0C358.7,432.8,358.8,432.8,358.9,432.8z"/>
	<path class="st2" d="M283,350.4c-1.6-0.2-2.8,0.8-4.2,1.1c-0.5,0.1-1,0.4-1.5,0.5c-3.2,0.4-4.9,3-6.8,5.1c-0.6,0.7-1.1,1.5-1.8,2
		c-1.7,1.4-1.2,3.3-0.4,5.3c0.6,1.5,0.5,3.5-0.8,4.7c-1.2,1.1-3.2,1.6-4.5,0.9c-1.2-0.6-2.6-2.9-2.3-4.2c0.4-1.9,0.2-3.7,0.2-5.6
		c0-1.6,0.5-2.7,1.6-3.9c2.2-2.4,4.4-4.9,6.3-7.6c0.8-1.2,2.2-2,3.7-2.4c2.2-0.6,4.3-1.3,6.5-2c0.9-0.3,1.5-0.8,2.2-1.4
		c1.4-1.2,3-1.1,4.5-0.5c1.3,0.5,2.1,1.6,2.3,3c0.4,2.7-2,4.7-4.1,4.8C283.6,350.4,283.3,350.4,283,350.4z"/>
	<path class="st2" d="M414.9,397.1c1.6,0.1,3.2-0.1,4.8,0.2c1.4,0.2,2.4,0.9,2.8,2.2c0.2,0.8,0.2,1.7,0,2.5
		c-0.4,1.7-1.4,2.6-3.3,2.6c-2.5,0-5,0.2-7.5,0.3c-0.9,0-1.1-0.4-1.1-1.1c0-1.9,0-3.8,0-5.7c0-0.7,0.2-0.9,0.9-0.9
		C412.5,397.1,413.7,397.1,414.9,397.1z"/>
	<path class="st2" d="M187.3,404.6c-2.7-0.3-4.1-4.3-1.8-6.7c0.2-0.2,0.4-0.4,0.6-0.5c2.5-0.8,5.1-0.9,7.6-0.1
		c0.6,0.2,0.8,0.8,0.9,1.4c0,1.3,0.1,2.6-0.2,3.9c-0.3,1.1-1.2,1.6-2.2,1.9c-0.1,0-0.2,0.1-0.3,0.1c-0.2,0-0.3,0-0.5,0
		c-0.9-0.3-1.8-0.2-2.7-0.1c-0.3,0-0.7,0-1,0C187.4,404.6,187.3,404.6,187.3,404.6z"/>
	<path class="st1" d="M188.5,404.6c0.9-0.1,1.8-0.2,2.7,0.1C190.3,404.8,189.4,404.8,188.5,404.6z"/>
	<path class="st1" d="M191.7,404.7c0.1,0,0.2-0.1,0.3-0.1C191.9,404.7,191.8,404.7,191.7,404.7z"/>
	<path class="st1" d="M187.3,404.6c0.1,0,0.2,0,0.2,0C187.4,404.7,187.3,404.7,187.3,404.6z"/>
</g>
</svg>
